<svg xmlns="http://www.w3.org/2000/svg" viewBox="0 0 512 512">
  <defs>
    <linearGradient id="ocpBase" x1="0" y1="0" x2="1" y2="1">
      <stop offset="0" stop-color="#7b7653"/>
      <stop offset="0.5" stop-color="#5d6840"/>
      <stop offset="1" stop-color="#3f482d"/>
    </linearGradient>
    <pattern id="ocp" width="180" height="180" patternUnits="userSpaceOnUse">
      <rect width="180" height="180" fill="#6f7150"/>
      <path d="M-18 47c36-33 75-31 99-10 22 20 59 15 99-17v58c-35 24-72 26-103 8-32-18-61-12-95 20Z" fill="#8a805d" opacity=".78"/>
      <path d="M22 136c28-34 63-45 95-22 25 18 49 12 82-17v61c-25 19-55 23-82 8-31-17-58-8-95 29Z" fill="#4f5b39" opacity=".82"/>
      <path d="M107-13c21 14 33 35 28 58-7 29-34 39-71 30 18-31 21-58 43-88Z" fill="#2f3826" opacity=".62"/>
      <path d="M145 65c31 13 43 41 19 66-19-11-47-9-69 9 9-36 21-62 50-75Z" fill="#c0aa78" opacity=".48"/>
    </pattern>
  </defs>
  <rect width="512" height="512" rx="104" fill="url(#ocpBase)"/>
  <rect width="512" height="512" rx="104" fill="url(#ocp)" opacity=".9"/>
  <path d="M256 50 406 110v111c0 101-58 194-150 238-92-44-150-137-150-238V110L256 50Z" fill="#6f7f42" fill-opacity=".86" stroke="#d0b063" stroke-width="22" stroke-linejoin="round"/>
  <path d="M256 125v245M205 173h102M162 232h188M182 284l140 38" stroke="#f1e8c8" stroke-width="36" stroke-linecap="square"/>
  <path d="M150 132l-30 14M362 132l30 14M150 390l-24 24M362 390l24 24" stroke="#d0b063" stroke-width="18" stroke-linecap="square" opacity=".75"/>
</svg>
